{"title":"L.Affaire.Farwell.2009.DVDRip.XviD-UNiTED","uid":5409515,"size":1032207359,"categoryP":"video","categoryS":"movies","magnet":"?xt=urn:btih:7e6554b38846a5544b1a1ff9b05745d6a50a97c2&amp;dn=L.Affaire.Farwell.2009.DVDRip.XviD-UNiTED&amp;tr=udp%3A%2F%2Ftracker.openbittorrent.com%3A80&amp;tr=udp%3A%2F%2Fopen.demonii.com%3A1337&amp;tr=udp%3A%2F%2Ftracker.coppersurfer.tk%3A6969&amp;tr=udp%3A%2F%2Fexodus.desync.com%3A6969","seeders":0,"leechers":0,"uploader":null,"files":-1,"time":1267711962,"description":"General\nComplete name                    : L.Affaire.Farwell.2009.DVDRip.XviD-UNiTED\nFormat                           : AVI\nFormat/Info                      : Audio Video Interleave\nFile size                        : 984 MiB\nDuration                         : 1h 48mn\nOverall bit rate                 : 1 265 Kbps\n\nVideo\nID                               : 0\nFormat                           : MPEG-4 Visual\nFormat profile                   : Simple@L3\nFormat settings, BVOP            : No\nFormat settings, QPel            : No\nFormat settings, GMC             : No warppoints\nFormat settings, Matrix          : Default (H.263)\nCodec ID                         : XVID\nCodec ID/Hint                    : XviD\nDuration                         : 1h 48mn\nBit rate                         : 1 130 Kbps\nWidth                            : 720 pixels\nHeight                           : 576 pixels\nDisplay aspect ratio             : 5:4\nFrame rate                       : 25.000 fps\nStandard                         : PAL\nResolution                       : 8 bits\nColorimetry                      : 4:2:0\nScan type                        : Progressive\nBits/(Pixel*Frame)               : 0.109\nStream size                      : 879 MiB (89%)\nWriting library                  : ZJMedia MPEG Encoder\n\nAudio\nID                               : 1\nFormat                           : MPEG Audio\nFormat version                   : Version 1\nFormat profile                   : Layer 3\nMode                             : Joint stereo\nFormat_Settings_ModeExtension    : MS Stereo\nCodec ID                         : 55\nCodec ID/Hint                    : MP3\nDuration                         : 1h 48mn\nBit rate mode                    : Constant\nBit rate                         : 128 Kbps\nChannel(s)                       : 2 channels\nSampling rate                    : 44.1 KHz\nStream size                      : 99.6 MiB (10%)\nAlignment                        : Split accross interleaves\nInterleave, duration             : 1000 ms (25.00 video frames)\n\nAUDIO                            : French\nSUBTITLES                        : French\nSOURCE                           : L.Affaire.Farewell.2009.PAL.FRENCH.DVDR-MAKZEN\nIMDB                             : http://www.imdb.com/title/tt0806029/\n","torrent":{"xt":"urn:btih:7e6554b38846a5544b1a1ff9b05745d6a50a97c2","amp;dn":"L.Affaire.Farwell.2009.DVDRip.XviD-UNiTED","amp;tr":["udp%3A%2F%2Ftracker.openbittorrent.com%3A80","udp%3A%2F%2Fopen.demonii.com%3A1337","udp%3A%2F%2Ftracker.coppersurfer.tk%3A6969","udp%3A%2F%2Fexodus.desync.com%3A6969"],"infoHash":"7e6554b38846a5544b1a1ff9b05745d6a50a97c2","infoHashBuffer":{"type":"Buffer","data":[126,101,84,179,136,70,165,84,75,26,31,249,176,87,69,214,165,10,151,194]},"announce":[],"urlList":[]}}